<svg width="600" height="112" viewBox="0 0 600 112" fill="none" xmlns="http://www.w3.org/2000/svg">
<path d="M16.0618 59.4268C19.6784 56.3713 20.4728 51.388 18.4617 47.4826C17.8451 46.2826 18.0284 44.8215 18.984 43.866L33.2837 29.5662C35.6225 27.2274 39.1058 26.3941 42.2168 27.5274C47.1445 29.3218 52.9111 28.1329 56.7277 23.9664C61.4331 18.822 61.3664 10.7777 56.5832 5.70561C51.3666 0.177939 42.6557 0.0834966 37.3225 5.42228C33.5337 9.21109 32.4837 14.7054 34.1725 19.4387C35.2836 22.5442 34.6003 26.0052 32.267 28.3329L17.8951 42.7049C16.9173 43.6826 15.4285 43.8826 14.2007 43.2549C10.5341 41.3882 5.92867 41.9827 2.86206 45.0548C-1.10453 49.0214 -0.948975 55.5491 3.33427 59.3101C6.9342 62.46 12.4063 62.5211 16.0618 59.4268Z" fill="white"/>
<path d="M86.0044 53.2321C81.8378 57.0487 80.6489 62.8152 82.4434 67.7429C83.5767 70.8484 82.7378 74.3372 80.4045 76.6761L66.1048 90.9758C65.1493 91.9313 63.6937 92.1146 62.4882 91.498C58.5772 89.4869 53.5995 90.2869 50.544 93.8979C47.4552 97.5534 47.5107 103.031 50.6718 106.625C54.4328 110.903 60.9605 111.059 64.927 107.098C67.9936 104.031 68.5936 99.4256 66.727 95.759C66.0992 94.5257 66.2992 93.0424 67.277 92.0646L81.6489 77.6927C83.9822 75.3594 87.4377 74.6817 90.5432 75.7872C95.2764 77.476 100.765 76.4261 104.56 72.6373C109.893 67.304 109.798 58.5931 104.276 53.3765C99.193 48.5933 91.1487 48.5266 86.0044 53.2321Z" fill="white"/>
<path d="M79.6099 11.3886C75.4433 15.2052 74.2544 20.9717 76.0488 25.8994C77.1821 29.0049 76.3433 32.4937 74.01 34.8326L59.7103 49.1323C58.7547 50.0878 57.2992 50.2712 56.0937 49.6545C52.1826 47.6434 47.205 48.4434 44.1495 52.0545C41.0606 55.7099 41.1162 61.1876 44.2772 64.782C48.0383 69.0597 54.5659 69.2152 58.5325 65.2542C61.5991 62.1876 62.1991 57.5821 60.3325 53.9155C59.7047 52.6822 59.9047 51.1989 60.8825 50.2212L75.2544 35.8492C77.5877 33.5159 81.0432 32.8382 84.1487 33.9437C88.8819 35.6326 94.3707 34.5826 98.1651 30.7938C103.498 25.4605 103.404 16.7496 97.8817 11.533C92.7985 6.74425 84.7542 6.67758 79.6099 11.3886Z" fill="#50B748"/>
<path d="M205.157 83.2037L213.718 87.7036C210.912 93.2146 207.668 97.6701 203.99 101.053C200.312 104.437 196.173 107.014 191.574 108.781C186.974 110.548 181.774 111.431 175.963 111.431C163.085 111.431 153.019 107.214 145.758 98.7756C138.497 90.3369 134.869 80.7982 134.869 70.1595C134.869 60.1486 137.941 51.2265 144.091 43.3934C151.885 33.4325 162.313 28.4492 175.385 28.4492C188.457 28.4492 199.585 33.5547 207.623 43.7545C213.334 50.9599 216.24 59.9541 216.334 70.7373H145.313C145.508 79.9038 148.436 87.4203 154.102 93.2813C159.769 99.1423 166.763 102.076 175.091 102.076C179.107 102.076 183.018 101.376 186.818 99.9811C190.618 98.5867 193.851 96.7312 196.512 94.4146C199.179 92.0924 202.057 88.3591 205.157 83.2037ZM205.157 61.9486C203.801 56.532 201.829 52.2043 199.235 48.9655C196.646 45.7267 193.218 43.1156 188.957 41.1323C184.696 39.149 180.218 38.1601 175.518 38.1601C167.768 38.1601 161.113 40.6545 155.546 45.6322C151.48 49.2599 148.402 54.6987 146.324 61.9541H205.157V61.9486Z" fill="white"/>
<path d="M244.111 1.16113H254.266V30.4661H270.372V39.2437H254.266V109.392H244.111V39.2437H230.256V30.4661H244.111V1.16113Z" fill="white"/>
<path d="M285.605 0H295.761V44.6102C299.872 39.1937 304.394 35.1437 309.327 32.4605C314.26 29.7772 319.605 28.4328 325.36 28.4328C331.116 28.4328 336.493 29.9327 341.065 32.9327C345.638 35.9326 349.01 39.9548 351.182 45.0102C353.36 50.0657 354.449 57.9822 354.449 68.7653V109.387H344.293V71.7375C344.293 62.6432 343.932 56.5767 343.204 53.5267C341.949 48.3046 339.66 44.3769 336.349 41.7381C333.038 39.1048 328.694 37.7826 323.327 37.7826C317.183 37.7826 311.683 39.8159 306.822 43.8769C301.961 47.9379 298.755 52.9712 297.211 58.9655C296.244 62.8376 295.761 69.993 295.761 80.4373V109.381H285.605V0Z" fill="white"/>
<path d="M413.563 28.4331C425.724 28.4331 435.801 32.833 443.795 41.6384C451.062 49.666 454.695 59.1714 454.695 70.1489C454.695 81.1265 450.856 90.8096 443.179 99.0539C435.501 107.298 425.629 111.42 413.568 111.42C401.507 111.42 391.563 107.298 383.886 99.0539C376.208 90.8096 372.369 81.1709 372.369 70.1489C372.369 59.1269 376.002 49.7382 383.269 41.7162C391.258 32.8608 401.357 28.4331 413.563 28.4331ZM413.529 38.3718C405.085 38.3718 397.83 41.494 391.763 47.7272C385.697 53.9659 382.663 61.5102 382.663 70.36C382.663 76.0655 384.047 81.3876 386.813 86.3208C389.58 91.2541 393.313 95.0596 398.024 97.7484C402.73 100.432 407.902 101.776 413.529 101.776C419.157 101.776 424.329 100.432 429.035 97.7484C433.74 95.0651 437.479 91.2541 440.246 86.3208C443.012 81.3876 444.395 76.071 444.395 70.36C444.395 61.5102 441.351 53.9659 435.257 47.7272C429.168 41.494 421.924 38.3718 413.529 38.3718Z" fill="white"/>
<path d="M513.162 39.0996L506.634 45.8439C501.201 40.5718 495.896 37.9385 490.707 37.9385C487.407 37.9385 484.585 39.0273 482.235 41.2051C479.885 43.3828 478.707 45.9216 478.707 48.8216C478.707 51.3882 479.674 53.827 481.613 56.1492C483.552 58.5214 487.624 61.2991 493.824 64.4935C501.385 68.4101 506.518 72.1822 509.234 75.8099C511.901 79.4876 513.234 83.6209 513.234 88.2152C513.234 94.6984 510.957 100.187 506.401 104.682C501.846 109.176 496.157 111.426 489.329 111.426C484.774 111.426 480.429 110.437 476.285 108.454C472.146 106.47 468.719 103.737 466.002 100.254L472.385 92.9985C477.574 98.8484 483.074 101.776 488.89 101.776C492.963 101.776 496.429 100.471 499.29 97.8595C502.151 95.2484 503.579 92.1763 503.579 88.6486C503.579 85.7486 502.635 83.1598 500.746 80.8876C498.857 78.6654 494.59 75.8599 487.952 72.4711C480.824 68.799 475.98 65.1713 473.413 61.588C470.846 58.0103 469.563 53.9215 469.563 49.3271C469.563 43.3328 471.607 38.3496 475.702 34.383C479.796 30.422 484.963 28.4331 491.213 28.4331C498.485 28.4331 505.801 31.9886 513.162 39.0996Z" fill="white"/>
<path d="M531.156 0H541.312V44.6102C545.423 39.1937 549.945 35.1437 554.878 32.4605C559.811 29.7772 565.156 28.4328 570.911 28.4328C576.666 28.4328 582.044 29.9327 586.616 32.9327C591.188 35.9326 594.561 39.9548 596.733 45.0102C598.91 50.0657 599.999 57.9822 599.999 68.7653V109.387H589.844V71.7375C589.844 62.6432 589.483 56.5767 588.755 53.5267C587.5 48.3046 585.211 44.3769 581.9 41.7381C578.589 39.1048 574.244 37.7826 568.878 37.7826C562.733 37.7826 557.234 39.8159 552.372 43.8769C547.511 47.9379 544.306 52.9712 542.762 58.9655C541.795 62.8376 541.312 69.993 541.312 80.4373V109.381H531.156V0Z" fill="white"/>
</svg>
